<svg width="200" height="156" viewBox="0 0 200 156" fill="none" xmlns="http://www.w3.org/2000/svg">
<path d="M153.19 0C154.371 0 155.555 0 156.736 0C157.452 0.397006 158.864 0.170145 158.679 1.3718C158.484 2.64434 158.935 2.76132 159.928 2.74005C160.247 2.73296 160.715 2.88184 160.867 3.11933C161.736 4.46986 162.946 5.32768 164.417 5.88774C164.885 6.06498 165.183 6.46907 165.272 6.95115C165.556 8.50373 166.485 9.75501 167.236 11.0701C167.63 11.7578 167.793 12.254 167.428 12.9984C166.861 14.1575 166.857 15.4584 168.017 16.1745C169.446 17.0571 170.967 17.7448 172.843 17.2131C175.779 16.3801 178.45 14.8984 181.499 14.2249C184.301 13.6046 186.964 14.2745 189.634 13.8917C191.936 13.562 193.223 14.8629 194.599 16.2347C197.404 19.0279 198.95 22.4982 200 26.2379V28.7191C197.917 30.1961 196.827 31.6187 196.73 32.987C196.968 32.8948 197.188 32.8239 197.401 32.7282C197.869 32.5191 198.337 32.0299 198.855 32.4694C199.397 32.9302 199.149 33.5683 198.965 34.1213C198.642 35.0819 198.163 36.0106 197.443 36.6983C194.613 39.3993 191.223 41.4233 188.539 44.3513C187.024 46.0031 184.737 46.3079 182.453 45.3119C181.067 44.7057 180.194 45.3367 179.935 46.8326C179.723 48.0555 179.432 49.2607 179.244 50.4871C178.932 52.5395 179.602 54.4182 180.907 55.8786C182.233 57.3603 182.847 58.9341 182.748 60.8554C182.602 63.6628 181.964 66.3745 180.659 68.8522C179.517 71.0145 178.049 73.1484 175.581 73.7971C171.254 74.9349 166.839 76.0125 162.474 73.7971C162.055 73.5844 161.598 73.4461 161.155 73.2831C157.236 71.8298 153.75 73.5631 150.218 74.825C149.793 74.9775 149.498 75.5801 149.211 76.0196C146.991 79.419 144.874 80.3548 140.959 79.4012C139.551 79.0574 138.477 79.2914 137.352 80.1669C133.533 83.1444 129.636 86.0263 125.82 89.0109C124.568 89.9893 123.384 90.3898 121.958 89.4753C120.873 88.777 119.912 88.9258 118.905 89.7766C116.784 91.5702 114.593 93.2752 112.419 94.9979C111.586 95.6572 111.086 96.4264 111.064 97.543C110.968 102.442 110.848 107.341 110.692 112.239C110.656 113.352 111.068 114.118 111.915 114.816C114.603 117.032 117.245 119.304 119.898 121.565C120.426 122.016 121.256 122.48 120.912 123.263C119.891 125.606 121.394 127.095 122.756 128.403C125.632 131.161 126.178 137.818 122.05 140.845C121.288 141.405 120.497 141.926 119.76 142.515C116.437 145.166 113.118 147.825 109.82 150.511C109.422 150.834 109.085 151.298 108.869 151.766C108.341 152.908 107.468 153.617 106.351 154.131C105.39 154.574 104.475 155.123 103.543 155.623H103.188C102.411 155.024 102.358 154.389 103.085 153.709C104.032 152.823 104.919 151.858 105.936 151.057C108.206 149.264 110.465 147.463 112.454 145.35C112.713 145.074 113.192 144.787 112.798 144.326C112.465 143.94 112.025 144.096 111.674 144.347C110.383 145.272 109.036 146.13 108.022 147.399C106.823 148.895 105.199 149.891 103.61 150.898C103.05 151.256 102.223 151.532 101.684 150.806C101.202 150.157 101.66 149.551 102.096 149.065C103.082 147.966 104.043 146.832 105.135 145.85C106.387 144.73 105.89 144.28 104.614 143.879C102.922 143.351 101.262 142.731 99.5709 142.203C85.4888 137.793 71.3855 133.447 57.3283 128.953C54.4168 128.024 51.6685 127.535 48.7251 128.641C47.4698 129.112 46.0832 129.243 44.7534 129.513C41.888 130.094 39.583 129.084 37.5226 127.12C33.7211 123.494 31.0827 119.151 29.3769 114.221C29.0365 113.232 28.4585 112.505 27.6606 111.832C25.2952 109.836 23.1214 107.628 22.249 104.551C20.0574 96.8234 17.0964 89.3654 14.4544 81.7939C13.5608 79.2311 12.6068 76.6895 11.6635 74.1444C11.4224 73.4922 11.1812 72.5635 10.2557 72.9853C8.55704 73.7616 6.64563 74.2933 5.43991 75.8388C4.80159 76.6541 4.06397 77.1291 3.11004 77.2744C2.41143 77.3808 1.43622 77.9196 1.08514 76.9554C0.787262 76.1437 1.74474 75.814 2.32632 75.4631C4.44697 74.1799 6.59598 72.9428 8.71307 71.6525C9.21309 71.3477 9.93298 71.1882 10.0074 70.38C9.206 70.1 8.69534 70.6033 8.14568 70.8833C6.1988 71.8758 4.26966 72.8967 2.34051 73.9211C1.57807 74.3288 0.819178 74.5804 0 74.0948C0 73.8573 0 73.6234 0 73.3859C0.482287 73.0491 1.01422 72.7656 1.43622 72.3615C2.55328 71.2874 3.74127 70.6565 5.35125 70.2665C7.71304 69.6923 10.1777 68.5757 11.6884 66.5942C14.5005 62.8936 17.951 61.2453 22.5504 62.0216C22.8767 62.0783 23.2845 62.0074 23.5718 61.8479C24.4548 61.3658 25.2349 61.5501 26.0967 61.9507C29.2032 63.3969 32.3451 64.7616 35.4445 66.2185C36.7921 66.8495 38.0936 66.9877 39.5581 66.6439C49.9096 64.2193 60.2752 61.855 70.6302 59.4517C72.8111 58.9448 75.0381 58.6045 77.063 57.5375C81.6093 55.1378 86.0775 52.5679 90.7479 50.4481C95.2374 48.4099 98.2765 45.1169 100.645 40.9732C101.163 40.0693 101.337 39.3072 100.887 38.3324C100.238 36.9322 99.7163 35.4363 99.9716 33.8767C101.071 27.1382 105.497 21.2611 114.274 22.7215C116.937 23.1646 119.628 23.9232 122.348 23.5793C126.331 23.0724 130.281 22.3351 134.249 21.7184C135.381 21.5411 135.998 20.9811 136.207 19.8007C136.739 16.7806 137.374 13.7782 137.945 10.7617C138.055 10.1768 138.076 9.51042 138.565 9.14532C140.218 7.91177 141.303 6.06498 143.104 4.99448C143.569 4.71799 144.048 4.34934 144.569 4.45214C146.225 4.78534 147.385 3.84245 148.612 3.03072C150.14 2.02048 151.669 1.01378 153.197 0.00708939L153.19 0ZM16.0999 73.5667C16.4687 75.059 17.1105 76.569 17.8694 78.0188C18.1318 78.5222 18.7985 78.586 19.2879 78.2776C19.7454 77.9904 20.5858 77.7849 20.3802 77.0865C19.9014 75.4702 20.2135 73.4993 18.4085 72.4182C17.9368 72.1346 17.6673 71.3441 16.9793 71.6454C16.2594 71.9609 16.1424 72.7159 16.0999 73.5631V73.5667Z" fill="#181A1C"/>
</svg>
